<svg width="24" height="24" viewBox="0 0 24 24" fill="none" xmlns="http://www.w3.org/2000/svg">
<g clip-path="url(#clip0_18_59)">
<path fill-rule="evenodd" clip-rule="evenodd" d="M8.17875 4.93031C8.05511 4.66729 7.79064 4.49937 7.5 4.49937C7.20936 4.49937 6.94489 4.66729 6.82125 4.93031L0.82125 17.6803C0.707204 17.9228 0.73119 18.2077 0.884173 18.4277C1.03716 18.6477 1.29589 18.7694 1.56292 18.747C1.82995 18.7245 2.0647 18.5612 2.17875 18.3188L3.74062 15H11.2594L12.8212 18.3188C12.9353 18.5612 13.17 18.7245 13.4371 18.747C13.7041 18.7694 13.9628 18.6477 14.1158 18.4277C14.2688 18.2077 14.2928 17.9228 14.1788 17.6803L8.17875 4.93031ZM4.44656 13.5L7.5 7.01156L10.5534 13.5H4.44656ZM18.75 9C17.5538 9 16.6191 9.32531 15.9722 9.9675C15.6905 10.2611 15.6944 10.7257 15.9808 11.0147C16.2672 11.3036 16.7317 11.3115 17.0278 11.0325C17.3841 10.6791 17.9653 10.5 18.75 10.5C19.9903 10.5 21 11.3438 21 12.375V12.6769C20.3344 12.2316 19.5508 11.9958 18.75 12C16.6819 12 15 13.5141 15 15.375C15 17.2359 16.6819 18.75 18.75 18.75C19.5511 18.7535 20.3348 18.5168 21 18.0703C21.0194 18.4845 21.3709 18.8046 21.7852 18.7852C22.1994 18.7657 22.5194 18.4142 22.5 18V12.375C22.5 10.5141 20.8181 9 18.75 9V9ZM18.75 17.25C17.5097 17.25 16.5 16.4062 16.5 15.375C16.5 14.3438 17.5097 13.5 18.75 13.5C19.9903 13.5 21 14.3438 21 15.375C21 16.4062 19.9903 17.25 18.75 17.25V17.25Z" fill="#171712"/>
</g>
<defs>
<clipPath id="clip0_18_59">
<rect width="24" height="24" fill="white"/>
</clipPath>
</defs>
</svg>
